<?xml version="1.0" encoding="UTF-8"?>
<!DOCTYPE svg PUBLIC "-//W3C//DTD SVG 1.1//EN" "http://www.w3.org/Graphics/SVG/1.1/DTD/svg11.dtd">
<!-- Creator: CorelDRAW -->
<svg xmlns="http://www.w3.org/2000/svg" xml:space="preserve" width="6.82666in" height="6.82666in" style="shape-rendering:geometricPrecision; text-rendering:geometricPrecision; image-rendering:optimizeQuality; fill-rule:evenodd; clip-rule:evenodd"
viewBox="0 0 6.82666 6.82666"
 xmlns:xlink="http://www.w3.org/1999/xlink">
 <defs>
  <style type="text/css">
   <![CDATA[
    .fil2 {fill:none}
    .fil21 {fill:#164D1A}
    .fil12 {fill:#192125}
    .fil5 {fill:#1B1B1B}
    .fil3 {fill:#212121}
    .fil8 {fill:#263238}
    .fil7 {fill:#2B383E}
    .fil13 {fill:#37474F}
    .fil4 {fill:#424242}
    .fil24 {fill:#4B772D}
    .fil6 {fill:#558B2F}
    .fil14 {fill:#595959}
    .fil23 {fill:#5A9131}
    .fil22 {fill:#689F38}
    .fil1 {fill:#AB47BC}
    .fil9 {fill:#ADD7FA}
    .fil0 {fill:#BA68C8}
    .fil17 {fill:#D50000}
    .fil16 {fill:#F57F17}
    .fil19 {fill:#FFAB00}
    .fil20 {fill:#FFC400}
    .fil18 {fill:#FFD740}
    .fil15 {fill:#212121;fill-rule:nonzero}
    .fil11 {fill:#33691E;fill-rule:nonzero}
    .fil10 {fill:#37474F;fill-rule:nonzero}
   ]]>
  </style>
   <clipPath id="id0">
    <path d="M3.41333 -3.93701e-006c1.88513,0 3.41333,1.5282 3.41333,3.41333 0,1.88513 -1.5282,3.41333 -3.41333,3.41333 -1.88513,0 -3.41333,-1.5282 -3.41333,-3.41333 0,-1.88513 1.5282,-3.41333 3.41333,-3.41333z"/>
   </clipPath>
 </defs>
 <g id="Layer_x0020_1">
  <metadata id="CorelCorpID_0Corel-Layer"/>
  <path class="fil0" d="M3.41333 -3.93701e-006c1.88513,0 3.41333,1.5282 3.41333,3.41333 0,1.88513 -1.5282,3.41333 -3.41333,3.41333 -1.88513,0 -3.41333,-1.5282 -3.41333,-3.41333 0,-1.88513 1.5282,-3.41333 3.41333,-3.41333z"/>
  <g style="clip-path:url(#id0)">
   <g id="_457199000">
    <g>
     <polygon id="_4432745681" class="fil1" points="3.73465,2.33261 7.52092,6.11888 7.52342,6.12191 7.52531,6.12537 7.5265,6.1292 7.52692,6.1333 7.52692,7.48747 7.5265,7.49157 7.52531,7.4954 7.52342,7.49886 7.52092,7.50189 7.5179,7.50438 7.51443,7.50627 7.51061,7.50746 7.50651,7.50788 5.3761,7.50788 5.372,7.50746 5.36817,7.50627 5.36471,7.50438 5.36169,7.50189 1.57542,3.71561 1.57844,3.71811 1.58191,3.72 1.58573,3.72119 1.58983,3.72161 3.72024,3.72161 3.72434,3.72119 3.72817,3.72 3.73163,3.71811 3.73465,3.71561 3.73715,3.71259 3.73904,3.70913 3.74023,3.7053 3.74065,3.7012 3.74065,2.34703 3.74023,2.34293 3.73904,2.3391 3.73715,2.33563 "/>
     <polygon id="_443274760" class="fil1" points="4.88063,2.96313 8.66689,6.74941 8.67939,6.76379 8.69158,6.77847 8.70346,6.79343 8.71504,6.80866 8.72631,6.82417 8.73727,6.83994 8.74793,6.85596 8.75828,6.87225 8.76833,6.88878 8.77808,6.90554 8.78752,6.92255 8.79667,6.93978 8.8055,6.95723 8.81404,6.9749 8.82228,6.99278 8.83022,7.01086 8.83787,7.02915 8.84521,7.04762 8.85226,7.06628 8.85901,7.08512 5.07274,3.29885 5.06599,3.28001 5.05894,3.26135 5.0516,3.24287 5.04396,3.22459 5.03602,3.20651 5.02778,3.18863 5.01924,3.17096 5.0104,3.1535 5.00126,3.13628 4.99181,3.11927 4.98207,3.1025 4.97202,3.08598 4.96166,3.06969 4.951,3.05367 4.94004,3.03789 4.92877,3.02239 4.9172,3.00715 4.90531,2.9922 4.89313,2.97752 "/>
     <polygon id="_443275720" class="fil1" points="5.07274,3.29885 8.85901,7.08512 8.85918,7.08557 8.85934,7.08602 8.8595,7.08648 8.85967,7.08693 8.85982,7.08738 8.85998,7.08783 8.86014,7.08829 8.8603,7.08874 5.07403,3.30247 5.07387,3.30202 5.07371,3.30156 5.07356,3.30111 5.0734,3.30066 5.07324,3.3002 5.07307,3.29975 5.07291,3.2993 "/>
     <polygon id="_443275312" class="fil1" points="5.07403,3.30247 8.8603,7.08874 8.86452,7.10119 8.86861,7.1137 8.87258,7.12629 8.87643,7.13894 8.88014,7.15167 8.88373,7.16445 8.8872,7.1773 8.89054,7.19022 8.89376,7.20319 8.89685,7.21622 8.89981,7.22931 8.90266,7.24246 8.90538,7.25566 8.90797,7.26891 8.91044,7.28221 8.91279,7.29556 8.91501,7.30896 8.91711,7.3224 8.91909,7.33589 8.92094,7.34941 8.92267,7.36298 8.92428,7.37659 8.92577,7.39023 8.92713,7.40391 8.92837,7.41762 8.92949,7.43137 8.93049,7.44514 8.93137,7.45894 8.93213,7.47278 8.93276,7.48663 8.93328,7.50051 8.93367,7.51441 8.9337,7.51579 8.93375,7.51775 8.93381,7.52023 8.93387,7.52317 8.93395,7.5265 8.93403,7.53016 8.93412,7.53409 8.93421,7.53822 8.93431,7.5425 8.93441,7.54687 8.9345,7.55125 8.9346,7.55559 8.93469,7.55983 8.93478,7.56391 8.93486,7.56776 8.93493,7.57131 5.14867,3.78504 5.14859,3.78148 5.14851,3.77764 5.14842,3.77356 5.14833,3.76932 5.14824,3.76498 5.14814,3.76059 5.14804,3.75623 5.14794,3.75195 5.14785,3.74781 5.14776,3.74389 5.14768,3.74022 5.14761,3.7369 5.14754,3.73396 5.14748,3.73148 5.14743,3.72952 5.1474,3.72813 5.14701,3.71424 5.14649,3.70036 5.14586,3.6865 5.1451,3.67267 5.14422,3.65887 5.14322,3.64509 5.14211,3.63135 5.14086,3.61764 5.1395,3.60396 5.13801,3.59032 5.13641,3.57671 5.13467,3.56314 5.13282,3.54961 5.13084,3.53613 5.12874,3.52269 5.12652,3.50929 5.12417,3.49594 5.1217,3.48264 5.11911,3.46939 5.11639,3.45619 5.11355,3.44304 5.11058,3.42995 5.10749,3.41692 5.10427,3.40394 5.10093,3.39103 5.09746,3.37818 5.09387,3.36539 5.09016,3.35267 5.08631,3.34002 5.08234,3.32743 5.07825,3.31491 "/>
     <polygon id="_443275384" class="fil1" points="5.25002,3.81502 9.03628,7.6013 9.04288,7.60856 9.04877,7.61642 9.0539,7.62483 9.05821,7.63375 9.06165,7.64311 9.06418,7.65287 9.06574,7.66298 9.06626,7.67338 9.06626,7.87752 9.06574,7.88791 9.06418,7.89802 9.06165,7.90778 9.05821,7.91715 9.0539,7.92606 9.04877,7.93448 9.04288,7.94234 9.03628,7.9496 9.02902,7.9562 9.02116,7.96209 9.01275,7.96722 9.00383,7.97153 8.99446,7.97497 8.9847,7.9775 8.9746,7.97906 8.9642,7.97958 8.90162,7.97958 5.11535,4.19331 5.17793,4.19331 5.18833,4.19278 5.19844,4.19123 5.2082,4.1887 5.21756,4.18526 5.22648,4.18094 5.23489,4.17582 5.24276,4.16993 5.25002,4.16333 5.25661,4.15607 5.2625,4.14821 5.26763,4.13979 5.27194,4.13087 5.27539,4.12151 5.27791,4.11175 5.27947,4.10164 5.28,4.09124 5.28,3.88711 5.27947,3.87671 5.27791,3.8666 5.27539,3.85684 5.27194,3.84748 5.26763,3.83856 5.2625,3.83015 5.25661,3.82228 "/>
     <polygon id="_443275336" class="fil1" points="4.8369,3.99519 8.62317,7.78146 8.5447,7.78146 4.75843,3.99519 "/>
     <polygon id="_443275600" class="fil1" points="4.29447,3.99519 8.08074,7.78146 8.00467,7.78146 4.21841,3.99519 "/>
     <polygon id="_443275096" class="fil1" points="4.21841,3.99519 8.00467,7.78146 8.00178,7.78648 7.99897,7.79154 7.99624,7.79665 7.99359,7.80181 7.99103,7.80702 7.98854,7.81227 7.98614,7.81757 7.98382,7.82292 7.98158,7.82831 7.97944,7.83375 7.97737,7.83923 7.9754,7.84475 7.97351,7.85031 7.97171,7.85591 7.97,7.86156 7.96839,7.86724 7.96686,7.87296 7.96543,7.87871 7.96409,7.8845 7.96284,7.89033 7.96169,7.8962 7.96063,7.90209 7.95968,7.90802 7.95881,7.91398 7.95805,7.91998 7.95739,7.926 7.95682,7.93205 7.95636,7.93813 7.956,7.94424 7.95574,7.95037 7.95558,7.95654 7.95553,7.96272 4.16926,4.17645 4.16931,4.17026 4.16947,4.1641 4.16973,4.15797 4.17009,4.15186 4.17056,4.14578 4.17112,4.13972 4.17178,4.1337 4.17255,4.12771 4.17341,4.12175 4.17437,4.11582 4.17543,4.10993 4.17657,4.10406 4.17782,4.09823 4.17916,4.09244 4.18059,4.08669 4.18212,4.08096 4.18374,4.07528 4.18544,4.06964 4.18724,4.06404 4.18913,4.05848 4.19111,4.05296 4.19317,4.04748 4.19531,4.04204 4.19755,4.03665 4.19987,4.0313 4.20227,4.026 4.20476,4.02074 4.20733,4.01554 4.20998,4.01038 4.2127,4.00526 4.21552,4.0002 "/>
     <polygon id="_443275192" class="fil1" points="4.16926,4.17645 7.95553,7.96272 7.95553,7.96407 7.95552,7.96511 7.95552,7.9659 7.95552,7.96648 7.95552,7.9669 7.95551,7.96722 7.95551,7.96748 7.95552,7.96773 4.16925,4.18146 4.16924,4.1812 4.16924,4.18094 4.16925,4.18063 4.16925,4.18021 4.16925,4.17963 4.16926,4.17884 4.16926,4.1778 "/>
     <polygon id="_443276128" class="fil1" points="5.11535,4.19331 8.90162,7.97958 8.78685,7.97958 8.78482,7.97953 8.78281,7.97938 8.78082,7.97913 8.77887,7.9788 8.77695,7.97836 8.77506,7.97783 8.77321,7.97722 8.7714,7.97653 4.98513,4.19026 4.98694,4.19095 4.9888,4.19156 4.99068,4.19209 4.9926,4.19252 4.99456,4.19286 4.99654,4.19311 4.99855,4.19326 5.00059,4.19331 "/>
     <polygon id="_443275816" class="fil1" points="4.16925,4.18146 7.95552,7.96773 7.95562,7.97273 4.16935,4.18646 "/>
     <polygon id="_443276416" class="fil1" points="4.16935,4.18646 7.95562,7.97273 7.95543,7.97518 7.95478,7.97746 7.95371,7.97955 7.95228,7.98137 7.95052,7.98289 7.94849,7.98406 7.94623,7.98482 7.9438,7.98512 4.15753,4.19885 4.15996,4.19855 4.16222,4.19779 4.16425,4.19662 4.16601,4.1951 4.16744,4.19328 4.16851,4.19119 4.16917,4.18891 "/>
     <polygon id="_443275792" class="fil1" points="3.7755,4.01789 7.56177,7.80416 7.46513,7.80416 3.67887,4.01789 "/>
     <polygon id="_443276464" class="fil1" points="3.14301,4.05136 6.92928,7.83763 6.43822,7.8783 2.65196,4.09202 "/>
     <polygon id="_443275840" class="fil1" points="3.67887,4.01789 7.46513,7.80416 7.46513,7.94594 7.4645,7.95214 7.4627,7.95792 7.45985,7.96316 7.45607,7.96773 7.4515,7.9715 7.44626,7.97436 7.44048,7.97616 7.43428,7.97679 6.96013,7.97679 6.95393,7.97616 6.94815,7.97436 6.94291,7.9715 6.93834,7.96773 3.15207,4.18146 3.15664,4.18523 3.16188,4.18809 3.16766,4.18989 3.17386,4.19052 3.64802,4.19052 3.65421,4.18989 3.66,4.18809 3.66524,4.18523 3.66981,4.18146 3.67358,4.17689 3.67643,4.17165 3.67824,4.16587 3.67887,4.15967 "/>
     <polygon id="_443276152" class="fil1" points="4.14564,4.19021 7.93191,7.97648 7.56177,7.97645 3.7755,4.19018 "/>
     <polygon id="_443276056" class="fil1" points="4.15753,4.19885 7.9438,7.98512 7.94175,7.985 7.9398,7.98454 7.93798,7.98379 7.93633,7.98276 7.93487,7.98149 4.1486,4.19522 4.15006,4.19649 4.15172,4.19752 4.15353,4.19827 4.15548,4.19872 "/>
     <polygon id="_443276224" class="fil1" points="4.75843,3.99519 8.5447,7.78146 8.54895,7.78653 8.5531,7.79168 8.55714,7.79693 8.56106,7.80226 8.56487,7.80768 8.56857,7.81319 8.57215,7.81878 8.57561,7.82445 8.57895,7.8302 8.58217,7.83604 8.58526,7.84194 8.58823,7.84793 8.59107,7.85398 8.59378,7.86011 8.59636,7.8663 8.5988,7.87257 8.60111,7.8789 8.60329,7.8853 8.60533,7.89175 8.60722,7.89827 8.60898,7.90485 8.61059,7.91148 8.61206,7.91817 8.61338,7.92492 8.61455,7.93171 8.61557,7.93856 8.61644,7.94546 8.61715,7.9524 8.61771,7.95939 8.61811,7.96641 8.61835,7.97349 8.61844,7.9806 8.61804,7.99633 8.61686,8.01185 8.61491,8.02716 8.61222,8.04221 8.60881,8.057 8.60469,8.07151 8.59989,8.08571 8.59441,8.0996 8.58829,8.11314 8.58154,8.12632 8.57418,8.13913 8.56622,8.15153 8.5577,8.16352 8.54863,8.17506 8.53902,8.18616 8.52889,8.19678 8.51828,8.2069 8.50719,8.21651 8.49563,8.22558 8.48365,8.23411 8.47124,8.24206 8.45844,8.24942 8.44526,8.25617 8.43172,8.2623 8.41783,8.26777 8.40363,8.27257 8.38912,8.27669 8.37433,8.28011 8.35928,8.2828 8.34398,8.28474 8.32845,8.28592 8.31272,8.28632 8.29698,8.28592 8.28146,8.28474 8.26616,8.2828 8.2511,8.28011 8.23631,8.27669 8.22181,8.27257 8.2076,8.26777 8.19372,8.2623 8.18017,8.25617 8.16699,8.24942 8.15419,8.24206 8.14179,8.23411 8.1298,8.22558 8.11825,8.21651 8.10716,8.2069 8.09654,8.19678 4.31027,4.4105 4.32089,4.42063 4.33198,4.43024 4.34353,4.43931 4.35552,4.44783 4.36792,4.45579 4.38072,4.46315 4.39391,4.4699 4.40745,4.47602 4.42133,4.4815 4.43554,4.4863 4.45004,4.49042 4.46483,4.49383 4.47989,4.49652 4.49519,4.49847 4.51072,4.49965 4.52645,4.50005 4.54218,4.49965 4.55771,4.49847 4.57301,4.49652 4.58806,4.49383 4.60285,4.49042 4.61736,4.4863 4.63157,4.4815 4.64545,4.47602 4.65899,4.4699 4.67217,4.46315 4.68498,4.45579 4.69738,4.44783 4.70937,4.43931 4.72092,4.43024 4.73201,4.42063 4.74263,4.4105 4.75275,4.39989 4.76236,4.38879 4.77143,4.37724 4.77996,4.36526 4.78791,4.35285 4.79527,4.34005 4.80202,4.32687 4.80815,4.31333 4.81362,4.29944 4.81843,4.28524 4.82254,4.27073 4.82596,4.25594 4.82865,4.24089 4.83059,4.22558 4.83177,4.21006 4.83217,4.19433 4.83209,4.18722 4.83185,4.18014 4.83144,4.17311 4.83089,4.16613 4.83017,4.15919 4.8293,4.15229 4.82828,4.14544 4.82711,4.13865 4.82579,4.1319 4.82432,4.12521 4.82271,4.11857 4.82096,4.112 4.81906,4.10548 4.81702,4.09902 4.81485,4.09263 4.81254,4.0863 4.81009,4.08003 4.80751,4.07383 4.8048,4.06771 4.80196,4.06165 4.79899,4.05567 4.7959,4.04976 4.79268,4.04393 4.78934,4.03818 4.78588,4.03251 4.7823,4.02692 4.77861,4.02141 4.7748,4.01599 4.77087,4.01065 4.76683,4.00541 4.76269,4.00026 "/>
     <polygon id="_443275912" class="fil1" points="4.89761,4.20107 8.68388,7.98734 8.68145,7.98702 8.6792,7.98624 8.67718,7.98506 8.67544,7.98353 4.88917,4.19726 4.89091,4.19879 4.89293,4.19997 4.89519,4.20075 "/>
     <polygon id="_443276080" class="fil1" points="4.98513,4.19026 8.7714,7.97653 8.6963,7.97652 4.91004,4.19025 "/>
     <polygon id="_443276920" class="fil1" points="4.91004,4.19025 8.6963,7.97652 8.69584,7.97879 8.69498,7.98088 8.69376,7.98274 8.69224,7.98435 8.69044,7.98565 8.68842,7.98661 8.68622,7.98719 8.68388,7.98734 4.89761,4.20107 4.89995,4.20092 4.90215,4.20034 4.90417,4.19938 4.90597,4.19808 4.9075,4.19647 4.90871,4.19461 4.90957,4.19252 "/>
     <polygon id="_443276824" class="fil1" points="2.58129,4.09788 6.36756,7.88415 6.35991,7.88478 2.57365,4.09851 "/>
     <polygon id="_443276992" class="fil1" points="2.65196,4.09202 6.43822,7.8783 6.43562,7.88269 6.43249,7.88671 6.42887,7.89031 6.42481,7.89345 6.42035,7.89608 6.41553,7.89815 6.41037,7.89961 6.40494,7.90041 6.39943,7.90052 6.39406,7.89993 6.38887,7.89869 6.38394,7.89684 6.37928,7.89442 6.37497,7.89147 6.37104,7.88804 2.58478,4.10176 2.5887,4.1052 2.59302,4.10815 2.59767,4.11057 2.60261,4.11241 2.60779,4.11365 2.61316,4.11424 2.61867,4.11414 2.62411,4.11333 2.62926,4.11187 2.63409,4.10981 2.63855,4.10718 2.64261,4.10404 2.64622,4.10044 2.64935,4.09641 "/>
     <polygon id="_443276512" class="fil1" points="2.54922,4.10053 6.33549,7.8868 6.27654,7.89169 2.49027,4.10541 "/>
     <polygon id="_443277184" class="fil1" points="2.58159,4.17645 6.36785,7.96272 6.36775,7.96915 2.58148,4.18288 "/>
     <polygon id="_443276896" class="fil1" points="2.58148,4.18288 6.36775,7.96915 6.36759,7.97561 2.58133,4.18934 "/>
     <polygon id="_443276584" class="fil1" points="1.94798,4.01789 5.73425,7.80416 5.66365,7.80416 1.87739,4.01789 "/>
     <polygon id="_443276632" class="fil1" points="1.60556,3.86595 5.39182,7.65222 5.36376,7.65222 1.57749,3.86595 "/>
     <polygon id="_443276680" class="fil1" points="2.57365,4.09851 6.35991,7.88478 6.36086,7.88951 6.36175,7.89426 6.36258,7.89903 6.36335,7.90382 6.36406,7.90863 6.36471,7.91346 6.3653,7.91831 6.36583,7.92318 6.36631,7.92806 6.36671,7.93296 6.36706,7.93788 6.36735,7.94282 6.36757,7.94777 6.36773,7.95274 6.36782,7.95772 6.36785,7.96272 2.58159,4.17645 2.58156,4.17145 2.58146,4.16647 2.5813,4.1615 2.58108,4.15655 2.58079,4.15161 2.58044,4.14669 2.58004,4.14179 2.57957,4.13691 2.57904,4.13204 2.57844,4.12719 2.5778,4.12236 2.57708,4.11755 2.57631,4.11276 2.57548,4.10799 2.57459,4.10324 "/>
     <polygon id="_443276752" class="fil1" points="1.71367,4.01789 5.49994,7.80416 5.41627,7.97472 1.63,4.18844 "/>
     <polygon id="_443277376" class="fil1" points="1.84048,4.18146 5.62674,7.96773 5.62685,7.97268 1.84058,4.18641 "/>
     <polygon id="_443277664" class="fil1" points="1.84058,4.18641 5.62685,7.97268 5.62667,7.97513 5.62603,7.97742 5.62497,7.97951 5.62354,7.98134 5.62179,7.98287 5.61976,7.98404 5.61751,7.98481 5.61508,7.98512 1.82881,4.19885 1.83124,4.19854 1.8335,4.19777 1.83552,4.19659 1.83727,4.19507 1.8387,4.19324 1.83976,4.19115 1.8404,4.18885 "/>
     <polygon id="_443277616" class="fil1" points="1.82881,4.19885 5.61508,7.98512 5.61263,7.98494 5.61034,7.9843 5.60825,7.98324 5.60642,7.98181 1.82015,4.19554 1.82198,4.19697 1.82407,4.19803 1.82637,4.19867 "/>
     <polygon id="_443277760" class="fil1" points="1.85047,4.01789 5.63674,7.80416 5.49994,7.80416 1.71367,4.01789 "/>
     <polygon id="_443277976" class="fil1" points="1.84049,4.17645 5.62676,7.96272 5.62674,7.96773 1.84048,4.18146 "/>
     <polygon id="_443277640" class="fil1" points="1.87739,4.01789 5.66365,7.80416 5.66147,7.80866 5.65935,7.81319 5.65728,7.81776 5.65529,7.82236 5.65335,7.827 5.65148,7.83167 5.64967,7.83636 5.64792,7.84109 5.64624,7.84586 5.64463,7.85065 5.64308,7.85547 5.6416,7.86033 5.64019,7.86521 5.63883,7.87012 5.63756,7.87506 5.63635,7.88002 5.6352,7.88501 5.63413,7.89003 5.63313,7.89507 5.6322,7.90014 5.63134,7.90523 5.63056,7.91035 5.62984,7.91549 5.6292,7.92065 5.62863,7.92584 5.62814,7.93105 5.62772,7.93628 5.62737,7.94153 5.6271,7.9468 5.62691,7.95209 5.6268,7.9574 5.62676,7.96272 1.84049,4.17645 1.84053,4.17113 1.84064,4.16581 1.84083,4.16052 1.84111,4.15526 1.84145,4.15 1.84187,4.14478 1.84236,4.13957 1.84293,4.13438 1.84357,4.12922 1.84429,4.12408 1.84507,4.11896 1.84593,4.11387 1.84687,4.1088 1.84787,4.10376 1.84894,4.09874 1.85008,4.09375 1.85129,4.08878 1.85257,4.08385 1.85392,4.07894 1.85533,4.07406 1.85681,4.0692 1.85836,4.06438 1.85998,4.05959 1.86165,4.05482 1.8634,4.05009 1.86521,4.04539 1.86708,4.04072 1.86902,4.03609 1.87102,4.03149 1.87308,4.02692 1.8752,4.02239 "/>
     <polygon id="_443277688" class="fil1" points="2.49027,4.10541 6.27654,7.89169 6.27809,7.89698 6.27955,7.90231 6.28092,7.90769 6.28219,7.9131 6.28337,7.91855 6.28444,7.92403 6.28542,7.92955 6.2863,7.9351 6.28708,7.94068 6.28776,7.9463 6.28834,7.95194 6.28881,7.95761 6.28919,7.96332 6.28945,7.96905 6.28961,7.97481 6.28967,7.9806 6.28927,7.99633 6.28809,8.01185 6.28614,8.02716 6.28345,8.04221 6.28004,8.057 6.27592,8.07151 6.27111,8.08571 6.26564,8.0996 6.25952,8.11314 6.25277,8.12632 6.24541,8.13913 6.23745,8.15153 6.22893,8.16352 6.21985,8.17506 6.21024,8.18616 6.20012,8.19678 6.1895,8.2069 6.17841,8.21651 6.16686,8.22558 6.15487,8.23411 6.14247,8.24206 6.12967,8.24942 6.11649,8.25617 6.10294,8.2623 6.08906,8.26777 6.07485,8.27257 6.06035,8.27669 6.04556,8.28011 6.0305,8.2828 6.0152,8.28474 5.99968,8.28592 5.98394,8.28632 5.96821,8.28592 5.95269,8.28474 5.93739,8.2828 5.92233,8.28011 5.90754,8.27669 5.89304,8.27257 5.87883,8.26777 5.86494,8.2623 5.8514,8.25617 5.83822,8.24942 5.82542,8.24206 5.81302,8.23411 5.80103,8.22558 5.78948,8.21651 5.77839,8.2069 1.99212,4.42063 2.00321,4.43024 2.01476,4.43931 2.02675,4.44783 2.03915,4.45579 2.05195,4.46315 2.06513,4.4699 2.07868,4.47602 2.09256,4.4815 2.10677,4.4863 2.12127,4.49042 2.13606,4.49383 2.15112,4.49652 2.16642,4.49847 2.18194,4.49965 2.19768,4.50005 2.21341,4.49965 2.22893,4.49847 2.24424,4.49652 2.25929,4.49383 2.27408,4.49042 2.28859,4.4863 2.30279,4.4815 2.31668,4.47602 2.33022,4.4699 2.3434,4.46315 2.3562,4.45579 2.36861,4.44783 2.38059,4.43931 2.39214,4.43024 2.40324,4.42063 2.41385,4.4105 2.42398,4.39989 2.43359,4.38879 2.44266,4.37724 2.45119,4.36526 2.45914,4.35285 2.4665,4.34005 2.47325,4.32687 2.47937,4.31333 2.48485,4.29944 2.48965,4.28524 2.49377,4.27073 2.49719,4.25594 2.49987,4.24089 2.50182,4.22558 2.503,4.21006 2.5034,4.19433 2.50334,4.18854 2.50319,4.18278 2.50292,4.17705 2.50255,4.17134 2.50207,4.16567 2.5015,4.16002 2.50081,4.15441 2.50004,4.14883 2.49915,4.14328 2.49817,4.13776 2.4971,4.13228 2.49592,4.12683 2.49465,4.12142 2.49328,4.11604 2.49182,4.11071 "/>
     <polygon id="_443277712" class="fil1" points="2.58133,4.18934 6.36759,7.97561 6.36727,7.97805 6.3665,7.9803 6.36531,7.98232 6.36378,7.98406 6.36194,7.98548 6.35985,7.98654 6.35756,7.98717 6.35511,7.98734 2.56884,4.20107 2.57129,4.2009 2.57358,4.20027 2.57567,4.19921 2.57751,4.19779 2.57905,4.19605 2.58023,4.19402 2.581,4.19178 "/>
     <polygon id="_443277352" class="fil1" points="1.63,4.18844 5.41627,7.97472 5.33461,7.97472 1.54834,4.18844 "/>
     <polygon id="_443277448" class="fil1" points="2.56884,4.20107 6.35511,7.98734 6.35268,7.98702 6.35043,7.98624 6.34841,7.98506 6.34666,7.98353 2.56039,4.19726 2.56214,4.19879 2.56416,4.19997 2.56641,4.20075 "/>
    </g>
    <path id="_457199096" class="fil1" d="M3.74065 2.34703l0 1.35417c0,0.0112244 -0.00918504,0.0204094 -0.0204094,0.0204094l-2.13041 0c-0.0112244,0 -0.0204094,-0.00918504 -0.0204094,-0.0204094l0 -1.35417c0,-0.0112283 0.00918504,-0.0204094 0.0204094,-0.0204094l2.13041 0c0.0112244,0 0.0204094,0.0091811 0.0204094,0.0204094zm0.965665 0.468173c0.175083,0.109547 0.295996,0.28174 0.366429,0.48365 0.000444882,0.00120079 0.000866142,0.00240945 0.00128346,0.00362205 0.0457047,0.132331 0.069815,0.277291 0.073374,0.425661 0.000137795,0.00572835 0.000893701,0.038811 0.00126378,0.0569094l0.0292677 0c0.0561339,0 0.102063,0.0459291 0.102063,0.102063l0 0.204138c0,0.0561378 -0.0459291,0.102067 -0.102063,0.102067l-0.0625787 0 -0.114768 0c-0.00546063,0 -0.0106811,-0.00108661 -0.0154528,-0.00305512l-0.0750984 -3.93701e-006c-0.00065748,0.00624409 -0.00604331,0.0110197 -0.0124213,0.0108189 -0.0066811,-0.000204724 -0.0119331,-0.00580315 -0.0117244,-0.0124843l0.00015748 -0.00604331 0 -0.00609055c0,-0.0661339 -0.0179094,-0.128083 -0.0491457,-0.18126l-0.0784724 0c0.0459646,0.0534961 0.0737402,0.123071 0.0737402,0.199134 0,0.168843 -0.136874,0.30572 -0.30572,0.30572 -0.168843,0 -0.30572,-0.136878 -0.30572,-0.30572 0,-0.0760591 0.0277756,-0.145634 0.0737402,-0.199134l-0.076063 0c-0.0312323,0.0531772 -0.0491457,0.11513 -0.0491457,0.18126 0,0.00404724 -2.3622e-005,0.00429528 -1.1811e-005,0.00500394l0.000106299 0.00500394c0.000153543,0.0066811 -0.00514173,0.0122323 -0.0118228,0.0123898 -0.00558268,0.000129921 -0.0103701,-0.00353937 -0.0118898,-0.00864173l-0.370138 -2.75591e-005 0 -0.172295 -0.0966378 0 0 0.141783c0,0.0169685 -0.013878,0.0308504 -0.0308504,0.0308504l-0.474157 0c-0.0169685,0 -0.0308465,-0.0138819 -0.0308465,-0.0308504l0 -0.108307 -0.491055 0.0406614c-0.00621654,0.0121575 -0.0184449,0.0208858 -0.0332874,0.0221181 -0.0148425,0.00122835 -0.0287008,-0.00534252 -0.0373819,-0.0162638l-0.00764173 0.000633858c0.00520472,0.0251654 0.00794094,0.0512323 0.00794094,0.0779409l-0.000102362 0.0064252 -0.00015748 0.00646457c-0.000208661,0.00668504 -0.00580315,0.011937 -0.0124843,0.0117283 -0.00668504,-0.000204724 -0.0119331,-0.00580315 -0.0117283,-0.0124843l0.00015748 -0.00608661 7.87402e-006 -0.00604724c0,-0.0260512 -0.00277953,-0.0514488 -0.00805906,-0.0759213l-0.0589528 0.00488189c0.00853937,0.0281378 0.0131299,0.0579882 0.0131299,0.0889134 0,0.168843 -0.136878,0.30572 -0.30572,0.30572 -0.168843,0 -0.30572,-0.136878 -0.30572,-0.30572 0,-0.0657165 0.0207362,-0.126594 0.0560236,-0.176441l-0.0705945 0c-0.023622,0.0478031 -0.0368976,0.101638 -0.0368976,0.158567l-1.1811e-005 0.00500394 0.000106299 0.00495276c0.000181102,0.00668504 -0.00509055,0.0122559 -0.0117717,0.0124409 -0.00668504,0.000181102 -0.0122559,-0.00509055 -0.0124409,-0.0117756l-0.000106299 -0.00533071 -8.66142e-005 -0.00529134c0,-0.0565591 0.0122717,-0.110252 0.0342953,-0.158567l-0.136799 0 -0.0836732 0.170559 -0.0816575 0 -0.0016811 -0.319071 0.0588937 0 0 -0.00342126 -0.028063 0 0 -0.116224 2.19801 0 0 -0.990512c-0.00314567,-0.0486575 0.0153071,-0.0757165 0.0653268,-0.0712126l0.391941 0 0.022185 0.000464567c0.177043,0.00355118 0.326319,0.0490827 0.449083,0.125339 0.000767717,0.000452756 0.00152362,0.00092126 0.00227559,0.0013937z"/>
   </g>
  </g>
  <path class="fil2" d="M3.41333 -3.93701e-006c1.88513,0 3.41333,1.5282 3.41333,3.41333 0,1.88513 -1.5282,3.41333 -3.41333,3.41333 -1.88513,0 -3.41333,-1.5282 -3.41333,-3.41333 0,-1.88513 1.5282,-3.41333 3.41333,-3.41333z"/>
  <path class="fil3" d="M2.41724 4.06629l0.159272 -0.013189c0.00622047,-0.0121575 0.0184488,-0.0208898 0.0332913,-0.0221181 0.0148504,-0.00122835 0.0287047,0.00533858 0.0373858,0.0162638l0.593157 -0.0491181 0.00477559 0.0447795 -0.593161 0.0491181c-0.00621654,0.0121575 -0.0184449,0.0208858 -0.0332874,0.0221181 -0.0148425,0.00122835 -0.0287008,-0.00534252 -0.0373819,-0.0162638l-0.159276 0.013189 -0.00477559 -0.0447795z"/>
  <path class="fil4" d="M1.60556 3.75065l2.53165 0 0 0.267232c-0.690378,0 -1.84128,0 -2.53165,0l0 -0.267232z"/>
  <rect class="fil5" x="1.57749" y="3.74973" width="2.25" height="0.116225"/>
  <rect class="fil4" x="4.10744" y="3.74853" width="0.774016" height="0.246665"/>
  <path class="fil6" d="M4.25496 2.68847c0.598421,0.0120079 0.879587,0.503591 0.892445,1.03967 0.000177165,0.00740157 0.00138976,0.0604567 0.00146457,0.067874 0.0817953,0.0363307 0.130748,0.0736063 0.130748,0.164602l-0.000255906 0c0,0.121874 -0.0646654,0.229909 -0.196744,0.229909l0 -0.000255906 -0.184693 -1.1811e-005c0.000169291,-0.00458268 0.000283465,-0.00917717 0.000283465,-0.0137992 0,-0.204646 -0.165902,-0.370551 -0.370551,-0.370551 -0.204646,0 -0.370547,0.165906 -0.370547,0.370551 0,0.0046063 0.000110236,0.00918898 0.000279528,0.0137559l-0.381882 -2.75591e-005 0 -1.43096c-0.00314567,-0.0486575 0.0153071,-0.0757165 0.0653268,-0.0712126l0.391941 0 0.022185 0.000464567z"/>
  <path class="fil7" d="M5.00059 3.78504l0.177346 0c0.0561339,0 0.102063,0.0459291 0.102063,0.102063l0 0.204138c0,0.0561378 -0.0459291,0.102067 -0.102063,0.102067l-0.177346 0c-0.0224567,0 -0.0408268,-0.0183701 -0.0408268,-0.0408228l0 -0.326622c0,-0.0224528 0.0183701,-0.0408228 0.0408268,-0.0408228z"/>
  <path class="fil8" d="M5.00059 3.78504l0.114768 0 0 0.408268 -0.114768 0c-0.0224567,0 -0.0408268,-0.0183701 -0.0408268,-0.0408228l0 -0.326618c0,-0.0224567 0.0183701,-0.0408268 0.0408268,-0.0408268z"/>
  <path class="fil9" d="M3.90351 2.81635l0.0970669 0c0.0112323,0 0.0204134,0.00918504 0.0204134,0.0204094l0 0.499807c0,0.0112283 -0.0091811,0.0204094 -0.0204134,0.0204094l-0.0970669 0c-0.0112283,0 -0.0204094,-0.0091811 -0.0204094,-0.0204094l0 -0.499807c0,-0.0112244 0.0091811,-0.0204094 0.0204094,-0.0204094z"/>
  <path class="fil10" d="M3.90351 2.8042l0.0970669 0c0.0089685,0 0.0171142,0.00366142 0.0230079,0.00955512 0.00589764,0.00589764 0.00956299,0.0140394 0.00956299,0.0230079l0 0.499807c0,0.0089685 -0.00366535,0.0171142 -0.00956299,0.0230079 -0.0058937,0.0058937 -0.0140394,0.00955906 -0.0230079,0.00955906l-0.0970669 0c-0.00893307,0 -0.0170669,-0.00366535 -0.0229646,-0.00955906l-4.33071e-005 -4.33071e-005c-0.0058937,-0.00589764 -0.00955906,-0.0140315 -0.00955906,-0.0229646l0 -0.499807c0,-0.00893701 0.00366535,-0.0170669 0.00955906,-0.0229606l4.33071e-005 -4.72441e-005c0.00589764,-0.0058937 0.0140315,-0.00955512 0.0229646,-0.00955512zm0.0970669 0.0243071l-0.0970669 0c-0.00227953,0 -0.00435433,0.000925197 -0.00584646,0.00240945 -0.00148425,0.00149606 -0.00240945,0.00356693 -0.00240945,0.00584646l0 0.499807c0,0.00227953 0.000925197,0.00435433 0.00240945,0.00584646 0.00149213,0.00148425 0.00356693,0.00240945 0.00584646,0.00240945l0.0970669 0c0.00226378,0 0.00433071,-0.000937008 0.00582677,-0.00242913 0.00149606,-0.0015 0.00243307,-0.00356693 0.00243307,-0.00582677l0 -0.499807c0,-0.00225984 -0.000937008,-0.00432677 -0.00243307,-0.00582283 -0.00149606,-0.00149606 -0.00356299,-0.00243307 -0.00582677,-0.00243307z"/>
  <path class="fil11" d="M4.1717 2.80808c0.00337008,-9.05512e-005 0.00617717,0.00256693 0.00626772,0.00593307 9.05512e-005,0.00337008 -0.00256299,0.00617717 -0.00593307,0.00626772 -0.0404016,0.0011063 -0.0656772,0.00594882 -0.0803898,0.0173071 -0.0140748,0.0108661 -0.0188228,0.0286575 -0.0185906,0.0559961l0.00420472 0.488717c5.51181e-005,0.00674016 -0.00607874,0.0178504 -0.0143268,0.0327874 -0.0151654,0.0274528 -0.0380197,0.0688307 -0.0394173,0.109992 -0.000425197,0.0125709 -0.00142126,0.0834567 -0.00107874,0.156941 0.000200787,0.0430945 0.000866142,0.0871614 0.00238189,0.120957 0.00615748,0.137209 0.0781496,0.135039 0.202906,0.131291l0.00384252 -0.000110236c0.0107008,-0.0085748 0.0210709,-0.0174449 0.0314173,-0.0262874 0.0296299,-0.0253268 0.0590984,-0.0505157 0.0940984,-0.0674213 0.0717323,-0.0346378 0.150283,-0.051185 0.22765,-0.0409134 0.0690236,0.00917323 0.13702,0.0396654 0.198283,0.0976614l1.1811e-005 1.5748e-005 1.1811e-005 -1.5748e-005c0.00947638,0.00897638 0.017563,0.0175709 0.0247913,0.025252 0.0167795,0.0178346 0.028626,0.0304173 0.0411496,0.0298465 0.00845669,-0.00038189 0.0172638,-0.000649606 0.025811,-0.000901575 0.0349055,-0.00102756 0.065,-0.00191732 0.0652283,-0.00920472l0 -2.3622e-005c0.00295669,-0.0946693 -0.000452756,-0.206189 -0.0106299,-0.322799 -0.00946063,-0.108335 -0.0247756,-0.220953 -0.0462559,-0.328394 -0.000661417,-0.00331496 0.00148819,-0.00653937 0.00480315,-0.00719685 0.00331496,-0.00065748 0.00654331,0.00149213 0.00720079,0.00480709 0.0215748,0.107902 0.0369528,0.220976 0.0464488,0.329732 0.0102047,0.116866 0.0136142,0.22889 0.0106299,0.324232l-3.93701e-006 0c-0.00061811,0.0187874 -0.0360157,0.0198386 -0.0770906,0.0210472 -0.00827559,0.000244094 -0.016815,0.0005 -0.0256181,0.000901575 -0.0181024,0.000826772 -0.0315354,-0.0134409 -0.0505709,-0.0336772 -0.0071063,-0.00755118 -0.0150551,-0.016 -0.024315,-0.0247677l1.5748e-005 -1.1811e-005c-0.059252,-0.0560827 -0.124898,-0.0855551 -0.191476,-0.0943976 -0.0748701,-0.00994488 -0.151063,0.00615354 -0.220764,0.039811 -0.0335787,0.0162165 -0.0624409,0.0408898 -0.0914646,0.0657008 -0.0110236,0.00941732 -0.0220709,0.0188622 -0.0333228,0.0278228l-1.1811e-005 -7.87402e-006c-0.000996063,0.000795276 -0.00225197,0.00128346 -0.00362992,0.00132677l-0.00590551 0.000173228c-0.132362,0.00398031 -0.20874,0.00627559 -0.215437,-0.142969 -0.00151575,-0.033752 -0.0021811,-0.0780315 -0.00238583,-0.121433 -0.000346457,-0.0737362 0.000649606,-0.144787 0.00107874,-0.15737 0.00150394,-0.0441654 0.025185,-0.0870472 0.0408976,-0.115496 0.00738583,-0.0133701 0.012874,-0.023315 0.0128465,-0.0268031l-0.00420472 -0.488717c-0.000267717,-0.0313504 0.00569291,-0.0521496 0.0233268,-0.0657598 0.0169961,-0.0131181 0.044437,-0.0186575 0.0875197,-0.0198425z"/>
  <path class="fil9" d="M4.12413 3.20829l0 -0.326618c0,-0.0406732 0.000732283,-0.0653228 0.0755945,-0.0653228l0.0316142 0c0.164024,0 0.291996,0.0352835 0.393043,0.0998622 0.127429,0.0814488 0.19139,0.194012 0.243602,0.319012 0.0140945,0.0337362 0.0262953,0.0714961 0.015,0.0920472 -0.0124606,0.0226732 -0.0469803,0.0335945 -0.107453,0.0306929l-0.575807 0c-0.0577756,7.87402e-005 -0.0809409,-0.0104724 -0.0755945,-0.149673z"/>
  <path class="fil10" d="M4.11198 3.20829l0 -0.326618c0,-0.0227992 0.000240157,-0.0411496 0.012622,-0.055748 0.0119055,-0.0140394 0.0336063,-0.0217283 0.0751299,-0.0217283l0.0316142 0c0.0829488,0 0.156969,0.0089685 0.223173,0.0261378 0.0663701,0.0172165 0.124783,0.0427008 0.176374,0.0756732 0.0651811,0.0416535 0.114102,0.0912402 0.153382,0.146354 0.0390866,0.0548504 0.0685197,0.115 0.0949213,0.178209 0.00727559,0.0174094 0.0140866,0.0359803 0.017685,0.0531535 0.00394882,0.0188504 0.00397244,0.0362323 -0.00325591,0.0493858 -0.00781102,0.0142205 -0.0219488,0.0245787 -0.0429331,0.0307323 -0.0189173,0.00554331 -0.043811,0.00771654 -0.0751535,0.00625197l0 2.3622e-005 -0.575807 0 0 -5.11811e-005c-0.0329921,4.33071e-005 -0.0562953,-0.00324016 -0.0717717,-0.0283465 -0.0136575,-0.0221575 -0.0186772,-0.0615197 -0.0159449,-0.133429l-3.54331e-005 0zm0.024311 -0.326618l0 0.326618 -4.72441e-005 0.000429134c-0.0025748,0.0670118 0.00132283,0.102425 0.0123228,0.120276 0.00920866,0.0149409 0.0263898,0.0168937 0.0511654,0.0168622l0 -5.11811e-005 0.575807 0 0.000570866 5.11811e-005c0.0288583,0.00138189 0.0512835,-0.000456693 0.0677441,-0.00527953 0.0144882,-0.00424803 0.0238583,-0.0106929 0.0285039,-0.0191457 0.00406693,-0.00739764 0.00363386,-0.0191811 0.000787402,-0.0327717 -0.00319685,-0.0152756 -0.00953937,-0.0324685 -0.0163583,-0.0487835 -0.0258071,-0.0617874 -0.0544685,-0.120429 -0.0922638,-0.173469 -0.0376063,-0.0527717 -0.0843937,-0.100209 -0.146642,-0.139988 -0.0494488,-0.0316063 -0.105555,-0.0560591 -0.169437,-0.0726299 -0.0640354,-0.0166063 -0.136028,-0.0252874 -0.217098,-0.0252874l-0.0316142 0c-0.0333346,0 -0.0494449,0.0046378 -0.0566142,0.0130906 -0.00669291,0.0078937 -0.00682677,0.0222047 -0.00682677,0.0400787z"/>
  <path class="fil8" d="M4.8353 3.27613l0.0617362 0.0902756c0.0140551,0.0630433 -0.0937205,0.0777362 -0.109256,0.0373622l0.015626 -0.0664016 0.0318937 -0.0612362z"/>
  <path class="fil12" d="M4.74718 3.3478l0.0239882 -0.182783c0.122248,0.0708583 0.0481457,0.211799 -0.0239882,0.182783z"/>
  <path class="fil8" d="M4.16029 3.53511l0.150697 0c0.00789764,0 0.0143543,-0.00646063 0.0143543,-0.0143543l0 -0.0143543 -0.179406 0 0 0.0143543c0,0.0078937 0.00646063,0.0143543 0.0143543,0.0143543z"/>
  <path class="fil13" d="M4.16587 3.45856l0.139539 0c0.0151299,0 0.0275118,0.012378 0.0275118,0.0275079l0 0.0275118 -0.194563 0 0 -0.0275118c0,-0.0151299 0.012378,-0.0275079 0.0275118,-0.0275079z"/>
  <path class="fil5" d="M4.52645 4.50005c-0.168843,0 -0.30572,-0.136878 -0.30572,-0.30572 0,-0.168843 0.136878,-0.305724 0.30572,-0.305724 0.168846,0 0.30572,0.136882 0.30572,0.305724 0,0.168843 -0.136874,0.30572 -0.30572,0.30572zm0 -0.151508c-0.0851654,0 -0.154213,-0.0690472 -0.154213,-0.154213 0,-0.0851693 0.0690472,-0.154213 0.154213,-0.154213 0.0851693,0 0.154213,0.0690433 0.154213,0.154213 0,0.0851654 -0.0690433,0.154213 -0.154213,0.154213z"/>
  <path class="fil4" d="M4.52645 4.35332c-0.087811,0 -0.159,-0.071185 -0.159,-0.158996 0,-0.087815 0.071189,-0.159 0.159,-0.159 0.087815,0 0.159,0.071185 0.159,0.159 0,0.087811 -0.071185,0.158996 -0.159,0.158996z"/>
  <path class="fil14" d="M4.52645 4.31861c-0.0686378,0 -0.124283,-0.0556457 -0.124283,-0.124283 0,-0.0686417 0.0556457,-0.124287 0.124283,-0.124287 0.0686417,0 0.124287,0.0556457 0.124287,0.124287 0,0.0686378 -0.0556457,0.124283 -0.124287,0.124283z"/>
  <path class="fil2" d="M4.15725 4.18674c-9.44882e-005,-0.00342913 -0.000141732,-0.00685827 -0.000141732,-0.0102913 0,-0.20465 0.165902,-0.370551 0.370547,-0.370551 0.20465,0 0.370551,0.165902 0.370551,0.370551 0,0.00416929 -7.08661e-005,0.00834252 -0.000212598,0.0125118"/>
  <path class="fil15" d="M4.16935 4.18646c0.000153543,0.0066811 -0.00514173,0.0122323 -0.0118228,0.0123898 -0.00668504,0.000153543 -0.0122362,-0.0051378 -0.0123898,-0.0118228 -4.33071e-005,-0.00162598 -8.26772e-005,-0.00336614 -0.000106299,-0.00528346 -5.51181e-005,-0.0041378 -8.26772e-005,-0.00467717 -8.26772e-005,-0.00529134 0,-0.105677 0.0428386,-0.201354 0.112091,-0.27061 0.0692598,-0.069252 0.164933,-0.112094 0.27061,-0.112094 0.105677,0 0.201358,0.0428425 0.27061,0.112094 0.0692559,0.0692559 0.112094,0.164933 0.112094,0.27061l-0.000102362 0.0064685c-3.54331e-005,0.00234252 -9.44882e-005,0.00447244 -0.00015748,0.00642126 -0.000204724,0.00668504 -0.00579921,0.011937 -0.0124843,0.0117283 -0.0066811,-0.000204724 -0.0119331,-0.00580315 -0.0117244,-0.0124843 7.08661e-005,-0.00218898 0.000125984,-0.00423622 0.00015748,-0.00604331l0 -0.00609055c0,-0.0989724 -0.0401102,-0.188571 -0.104969,-0.253425 -0.0648465,-0.0648504 -0.154453,-0.104969 -0.253425,-0.104969 -0.0989685,0 -0.188571,0.0401181 -0.253425,0.104969 -0.0648504,0.0648504 -0.104969,0.154457 -0.104969,0.253425 0,0.00404724 -2.3622e-005,0.00429528 -1.1811e-005,0.00500394 1.9685e-005,0.00150787 5.90551e-005,0.00320472 0.000106299,0.00500394z"/>
  <path class="fil3" d="M4.52645 4.25444c-0.0332008,0 -0.0601181,-0.0269173 -0.0601181,-0.0601181 0,-0.0332047 0.0269173,-0.060122 0.0601181,-0.060122 0.0332047,0 0.0601181,0.0269173 0.0601181,0.060122 0,0.0332008 -0.0269134,0.0601181 -0.0601181,0.0601181z"/>
  <path class="fil5" d="M2.19768 4.50005c-0.168843,0 -0.30572,-0.136878 -0.30572,-0.30572 0,-0.168843 0.136878,-0.305724 0.30572,-0.305724 0.168843,0 0.30572,0.136882 0.30572,0.305724 0,0.168843 -0.136878,0.30572 -0.30572,0.30572zm0 -0.151508c-0.0851693,0 -0.154217,-0.0690472 -0.154217,-0.154213 0,-0.0851693 0.0690472,-0.154213 0.154217,-0.154213 0.0851654,0 0.154213,0.0690433 0.154213,0.154213 0,0.0851654 -0.0690472,0.154213 -0.154213,0.154213z"/>
  <path class="fil4" d="M2.19768 4.35332c-0.087811,0 -0.159,-0.071185 -0.159,-0.158996 0,-0.087815 0.071189,-0.159 0.159,-0.159 0.087811,0 0.159,0.071185 0.159,0.159 0,0.087811 -0.071189,0.158996 -0.159,0.158996z"/>
  <path class="fil14" d="M2.19768 4.31861c-0.0686417,0 -0.124283,-0.0556457 -0.124283,-0.124283 0,-0.0686417 0.0556417,-0.124287 0.124283,-0.124287 0.0686417,0 0.124283,0.0556457 0.124283,0.124287 0,0.0686378 -0.0556417,0.124283 -0.124283,0.124283z"/>
  <path class="fil2" d="M1.82848 4.18674c-9.44882e-005,-0.00342913 -0.000145669,-0.00685827 -0.000145669,-0.0102913 0,-0.20465 0.165906,-0.370551 0.370551,-0.370551 0.20465,0 0.370551,0.165902 0.370551,0.370551 0,0.00416929 -7.08661e-005,0.00834252 -0.000212598,0.0125118"/>
  <path class="fil15" d="M1.84058 4.18641c0.000181102,0.00668504 -0.00509055,0.0122559 -0.0117717,0.0124409 -0.00668504,0.000181102 -0.0122559,-0.00509055 -0.0124409,-0.0117756 -4.33071e-005,-0.00159449 -7.87402e-005,-0.00338976 -0.000106299,-0.00533071l-8.66142e-005 -0.00529134c0,-0.105677 0.0428425,-0.201354 0.112094,-0.27061 0.0692559,-0.069252 0.164933,-0.112094 0.27061,-0.112094 0.211358,0 0.382705,0.171343 0.382705,0.382705l-0.000102362 0.0064252c-3.93701e-005,0.00232677 -9.05512e-005,0.0045 -0.00015748,0.00646457 -0.000208661,0.00668504 -0.00580315,0.011937 -0.0124843,0.0117283 -0.00668504,-0.000204724 -0.0119331,-0.00580315 -0.0117283,-0.0124843 7.48031e-005,-0.00220866 0.000129921,-0.00423622 0.00015748,-0.00608661l7.87402e-006 -0.00604724c0,-0.197933 -0.160465,-0.358394 -0.358398,-0.358394 -0.0989685,0 -0.188575,0.0401181 -0.253425,0.104969 -0.0648504,0.0648504 -0.104969,0.154457 -0.104969,0.253425l-1.1811e-005 0.00500394c1.5748e-005,0.00148031 5.51181e-005,0.00312598 0.000106299,0.00495276z"/>
  <path class="fil3" d="M2.19768 4.25444c-0.0332047,0 -0.060122,-0.0269173 -0.060122,-0.0601181 0,-0.0332047 0.0269173,-0.060122 0.060122,-0.060122 0.0332008,0 0.0601181,0.0269173 0.0601181,0.060122 0,0.0332008 -0.0269173,0.0601181 -0.0601181,0.0601181z"/>
  <polygon class="fil4" points="1.54666,3.86937 1.78653,3.86937 1.63,4.18844 1.54834,4.18844 "/>
  <path class="fil16" d="M3.17386 3.92754l0.372961 0 0 -0.0204134 0.0590079 0 0 0.0204134 0.042189 0c0.0169724,0 0.0308504,0.0138819 0.0308504,0.0308543l0 0.20128c0,0.0169685 -0.013878,0.0308504 -0.0308504,0.0308504l-0.474157 0c-0.0169685,0 -0.0308465,-0.0138819 -0.0308465,-0.0308504l0 -0.20128c0,-0.0169724 0.013878,-0.0308543 0.0308465,-0.0308543z"/>
  <path class="fil17" d="M3.54187 3.88671l0.064748 0c0.00746063,0 0.0135551,0.00609843 0.0135551,0.0135551l0 0.0135551 -0.0918583 0 0 -0.0135551c0,-0.00745669 0.00609843,-0.0135551 0.0135551,-0.0135551z"/>
  <path class="fil18" d="M1.58983 3.72161l2.13041 0c0.0112244,0 0.0204094,-0.00918504 0.0204094,-0.0204094l0 -1.35417c0,-0.0112283 -0.00918504,-0.0204094 -0.0204094,-0.0204094l-2.13041 0c-0.0112244,0 -0.0204094,0.0091811 -0.0204094,0.0204094l0 1.35417c0,0.0112244 0.00918504,0.0204094 0.0204094,0.0204094z"/>
  <rect class="fil19" x="1.72785" y="2.49832" width="1.85437" height="1.05158"/>
  <rect class="fil20" x="1.8293" y="2.44423" width="0.0516589" height="1.15978"/>
  <rect class="fil20" x="1.68386" y="2.44423" width="0.0516617" height="1.15978"/>
  <rect class="fil20" x="1.97473" y="2.44423" width="0.0516617" height="1.15978"/>
  <rect class="fil20" x="2.12017" y="2.44423" width="0.0516589" height="1.15978"/>
  <rect class="fil20" x="2.26561" y="2.44423" width="0.0516617" height="1.15978"/>
  <rect class="fil20" x="2.41105" y="2.44423" width="0.0516617" height="1.15978"/>
  <rect class="fil20" x="2.55648" y="2.44423" width="0.0516617" height="1.15978"/>
  <rect class="fil20" x="2.70192" y="2.44423" width="0.0516617" height="1.15978"/>
  <rect class="fil20" x="2.84736" y="2.44423" width="0.0516617" height="1.15978"/>
  <rect class="fil20" x="2.9928" y="2.44423" width="0.0516617" height="1.15978"/>
  <rect class="fil20" x="3.13823" y="2.44423" width="0.0516589" height="1.15978"/>
  <rect class="fil20" x="3.42911" y="2.44423" width="0.0516589" height="1.15978"/>
  <rect class="fil20" x="3.28367" y="2.44423" width="0.0516617" height="1.15978"/>
  <rect class="fil20" x="3.57455" y="2.44423" width="0.0516617" height="1.15978"/>
  <path class="fil21" d="M1.6142 2.35177l0.0292835 0c0.00800394,0 0.0145433,0.00654331 0.0145433,0.0145433l0 0.00259449c0,0.00800394 -0.00653937,0.0145433 -0.0145433,0.0145433l-0.0292835 0c-0.008,0 -0.0145394,-0.00653937 -0.0145394,-0.0145433l0 -0.00259449c0,-0.008 0.00653937,-0.0145433 0.0145394,-0.0145433z"/>
  <path class="fil21" d="M3.66477 2.35177l0.0292795 0c0.00800394,0 0.0145433,0.00654331 0.0145433,0.0145433l0 0.00259449c0,0.00800394 -0.00653937,0.0145433 -0.0145433,0.0145433l-0.0292795 0c-0.008,0 -0.0145433,-0.00653937 -0.0145433,-0.0145433l0 -0.00259449c0,-0.008 0.00654331,-0.0145433 0.0145433,-0.0145433z"/>
  <path class="fil9" d="M5.07403 3.30247c-0.0702717,-0.203469 -0.191583,-0.377067 -0.367713,-0.487272l-0.0046378 0.0209016c0,0 0.189213,0.145417 0.270724,0.315673 0.0437795,0.0914488 0.053626,0.126508 0.0572165,0.143228 0.00309843,0.0144134 0.00264173,0.0162913 0.00264173,0.0162913 0.0142441,0.0194606 0.0294961,0.0210709 0.0417677,-0.00882283z"/>
  <path class="fil13" d="M4.70404 2.81381c0.00151969,0.000944882 0.00301969,0.00191339 0.0045315,0.00286614l-0.00409449 0.0184764c0.0163504,0.0136654 0.201213,0.170102 0.270209,0.315547 0.0522126,0.110067 0.0534094,0.120638 0.0551102,0.135697 0.000614173,0.00547244 0.00130315,0.0115669 0.00477559,0.0237756 0.00361811,0.00488189 0.00725984,0.00851969 0.0108386,0.0106535 0.00324803,0.00194094 0.00644882,0.00261024 0.00950787,0.00179921 0.00319291,-0.000846457 0.00640551,-0.00331496 0.00956693,-0.00762598 0.0028622,-0.00390157 0.00562992,-0.00923622 0.00825984,-0.0161457 0.00084252,0.00240945 0.00164961,0.00483858 0.00247638,0.00725984 -0.0021378,0.00480315 -0.00436614,0.00874409 -0.00665748,0.0118701 -0.00388583,0.00529134 -0.00803937,0.00837795 -0.0123583,0.00952756 -0.00445669,0.0011811 -0.00894882,0.000299213 -0.0133858,-0.00235039 -0.00427165,-0.00254724 -0.00850394,-0.00677165 -0.0125945,-0.0123701l-0.000397638 -0.000799213c-0.0036811,-0.0128583 -0.00440551,-0.0192795 -0.00505512,-0.0250433 -0.00164567,-0.0145551 -0.00280315,-0.0247795 -0.0546575,-0.134091 -0.0716339,-0.151004 -0.26948,-0.314343 -0.270047,-0.314815l-0.00118504 -0.000984252 0.000334646 -0.00149606 0.00482283 -0.021752z"/>
  <path class="fil22" d="M3.32484 2.80006c-0.152697,0.0975787 -0.243362,0.26135 -0.341205,0.348909 -0.620748,0.55552 -0.917197,-0.741874 0.341205,-0.348909z"/>
  <path class="fil6" d="M2.38439 3.27711c0.128571,-0.14239 0.236902,-0.297339 0.454327,-0.373614 0.0881024,-0.0309055 0.106614,-0.0440945 0.202669,-0.0557638l-0.00103937 0.000133858c0.0395118,-0.00092126 0.0553819,0.00427165 0.092378,0.0113071 -0.0306142,0.00100787 -0.0088622,0.00135039 -0.0455827,-0.00175197 -0.0884252,-0.00746063 -0.162075,0.0312087 -0.242433,0.0619724 -0.226071,0.0865512 -0.316382,0.249106 -0.459567,0.404224l-0.000751969 -0.0465079z"/>
  <path class="fil6" d="M2.77188 2.93275c0.0149488,-0.000354331 0.0302441,-0.000145669 0.0459331,0.000700787 0.0787638,0.00424803 0.0974724,-9.05512e-005 0.176252,0.0217441l-0.000858268 -0.000228346c0.0311575,0.0120079 0.041878,0.0211772 0.0685079,0.0385945 -0.0242362,-0.00907874 -0.00735827,-0.00180315 -0.0350354,-0.0160551 -0.0666575,-0.0343189 -0.136638,-0.0278465 -0.209311,-0.0297087 -0.0159646,-0.000409449 -0.0314331,-0.000188976 -0.0464646,0.000598425 0.00231496,-0.0048937 0.00264961,-0.0105079 0.000976378,-0.0156457z"/>
  <path class="fil6" d="M2.617 3.02939c0.000854331,3.93701e-005 0.00169685,7.08661e-005 0.00255118,0.00011811 0.0932323,0.00502362 0.115374,-0.000110236 0.208622,0.0257323l-0.00101575 -0.000267717c0.036878,0.0142126 0.0495669,0.0250669 0.0810866,0.0456811 -0.028685,-0.0107441 -0.00870866,-0.00213386 -0.0414685,-0.0190039 -0.0788976,-0.0406181 -0.161732,-0.0329567 -0.247748,-0.0351614l-0.00185039 -3.54331e-005c0.0019252,-0.00551181 0.00186614,-0.0115866 -0.000177165,-0.017063z"/>
  <path class="fil6" d="M2.86531 2.90936c0.00654331,-0.00754724 0.0127244,-0.0153465 0.0184961,-0.0234252 0.0289764,-0.0405709 0.0406811,-0.0495079 0.0537874,-0.0923819l-0.000149606 0.000464567c0.0021378,-0.0173976 -0.00166929,-0.0240433 -0.00629921,-0.0398504 -0.00190157,0.0135 -0.00143701,0.00397244 -0.000102362,0.0198976 0.00320866,0.0383504 -0.0317795,0.0730551 -0.0603661,0.110217 -0.00628346,0.00816535 -0.0129213,0.0159961 -0.0198937,0.0235276 0.00538189,-0.000535433 0.0105866,2.75591e-005 0.0145276,0.00155118z"/>
  <path class="fil6" d="M2.66648 3.00895c0.000374016,-0.000523622 0.000759843,-0.00103937 0.00112992,-0.00156299 0.0407402,-0.0574409 0.0559213,-0.0695 0.078563,-0.132154l-0.000255906 0.000681102c0.00548425,-0.0257795 0.00218504,-0.0361417 -0.000492126,-0.0602874 -0.00453543,0.0199724 -0.00235827,0.00577953 -0.00353937,0.0297402 -0.00285039,0.0577008 -0.0495906,0.105701 -0.0892953,0.158091l-0.000866142 0.00112205c0.00572441,0.000216535 0.0109803,0.00177165 0.0147559,0.00437008z"/>
  <path class="fil23" d="M1.98523 2.99943c0.0741929,0.0474094 0.118248,0.126984 0.165787,0.169531 0.301618,0.269921 0.445657,-0.360472 -0.165787,-0.169531z"/>
  <path class="fil24" d="M2.44219 3.23122c-0.0624685,-0.069185 -0.11511,-0.144472 -0.220752,-0.181535 -0.042811,-0.0150157 -0.0518031,-0.0214252 -0.0984764,-0.0270945l0.000503937 6.69291e-005c-0.0191969,-0.000448819 -0.0269094,0.0020748 -0.0448858,0.00549213 0.014874,0.000488189 0.00430709,0.000653543 0.0221496,-0.000850394 0.0429646,-0.00362598 0.078752,0.0151614 0.117795,0.0301102 0.109846,0.0420551 0.153728,0.121039 0.223299,0.196409l0.000366142 -0.0225984z"/>
  <path class="fil24" d="M2.25391 3.0639c-0.00726378,-0.000169291 -0.0146929,-7.08661e-005 -0.0223189,0.00034252 -0.0382717,0.00206299 -0.0473583,-4.33071e-005 -0.0856378,0.010563l0.000417323 -0.000110236c-0.0151417,0.00583465 -0.0203504,0.0102913 -0.0332874,0.018752 0.0117756,-0.00440945 0.0035748,-0.000874016 0.0170236,-0.00779921 0.0323858,-0.0166732 0.0663898,-0.0135315 0.101701,-0.014437 0.00775984,-0.00019685 0.0152756,-9.05512e-005 0.0225787,0.000291339 -0.00112598,-0.00237795 -0.0012874,-0.0051063 -0.000476378,-0.00760236z"/>
  <path class="fil24" d="M2.32916 3.11086c-0.000413386,1.9685e-005 -0.000822835,3.54331e-005 -0.00123622,5.51181e-005 -0.0452992,0.00244488 -0.0560591,-5.11811e-005 -0.101366,0.0125079l0.000492126 -0.000133858c-0.0179213,0.00690945 -0.0240866,0.0121811 -0.0394016,0.0221969 0.0139409,-0.00522047 0.00423228,-0.00103543 0.0201496,-0.00923228 0.0383386,-0.0197362 0.0785827,-0.0160157 0.120382,-0.0170866l0.000897638 -1.5748e-005c-0.000937008,-0.00267717 -0.000909449,-0.00562992 8.26772e-005,-0.00829134z"/>
  <path class="fil24" d="M2.20851 3.05254c-0.0031811,-0.00366535 -0.00618504,-0.00745669 -0.00898819,-0.0113819 -0.0140787,-0.0197126 -0.0197638,-0.0240551 -0.0261339,-0.0448898l7.08661e-005 0.000228346c-0.00103543,-0.00845276 0.000814961,-0.011685 0.00306299,-0.0193622 0.000925197,0.00655906 0.00069685,0.00192913 4.72441e-005,0.00966929 -0.00155512,0.0186339 0.0154449,0.0354961 0.0293346,0.0535512 0.00305118,0.0039685 0.00627559,0.00777165 0.00966535,0.0114331 -0.00261417,-0.000259843 -0.00514567,1.1811e-005 -0.00705906,0.000751969z"/>
  <path class="fil24" d="M2.30512 3.10093c-0.000185039,-0.000255906 -0.000370079,-0.000507874 -0.000551181,-0.00076378 -0.0197953,-0.0279094 -0.0271693,-0.0337677 -0.0381732,-0.0642126l0.000122047 0.000330709c-0.00266142,-0.0125236 -0.00105906,-0.0175591 0.000240157,-0.0292913 0.00220472,0.00970472 0.00114567,0.00280709 0.00172047,0.0144528 0.00138583,0.0280354 0.0240984,0.0513583 0.0433898,0.076811l0.00042126 0.000547244c-0.00278346,0.000106299 -0.00533858,0.000862205 -0.00716929,0.00212598z"/>
 </g>
</svg>
