<?xml version="1.0" encoding="UTF-8"?>
<!DOCTYPE svg PUBLIC "-//W3C//DTD SVG 1.1//EN" "http://www.w3.org/Graphics/SVG/1.1/DTD/svg11.dtd">
<!-- Creator: CorelDRAW -->
<svg xmlns="http://www.w3.org/2000/svg" xml:space="preserve" width="2048px" height="2048px" style="shape-rendering:geometricPrecision; text-rendering:geometricPrecision; image-rendering:optimizeQuality; fill-rule:evenodd; clip-rule:evenodd"
viewBox="0 0 2048 2048"
 xmlns:xlink="http://www.w3.org/1999/xlink">
 <defs>
  <style type="text/css">
   <![CDATA[
    .fil0 {fill:#C0CA33}
    .fil1 {fill:#FFFFFE}
    .fil2 {fill:#FFFFFE;fill-rule:nonzero}
   ]]>
  </style>
 </defs>
 <g id="Layer_x0020_1">
  <metadata id="CorelCorpID_0Corel-Layer"/>
  <circle class="fil0" cx="1024" cy="1024" r="1024"/>
  <g id="_374907744">
   <path id="_374907192" class="fil1" d="M726.521 467.128l-0.0153543 -0.0767717 11.2559 -2.33032c18.6449,-3.85866 36.4855,8.16615 40.8591,26.5193l207.532 870.862c4.41496,18.528 -7.18347,37.3087 -25.7103,41.6977 -18.5232,4.3878 -37.2685,-7.19056 -41.68,-25.6996l-199.89 -838.796 -201.122 41.641c-18.6933,3.87048 -36.9957,-8.263 -40.8083,-26.9492 -3.81024,-18.6791 8.27363,-36.9083 26.9244,-40.7693l222.655 -46.0985zm742.176 810.955l43.9347 -43.9335c13.5236,-13.5248 35.4626,-13.5248 48.9863,0 13.5236,13.5225 13.5236,35.4614 0,48.9851l-50.4059 50.4059c-1.77402,1.7752 -3.70748,3.35906 -5.77559,4.72323l0.466536 1.89803 -9.3378 2.29843c-0.611811,0.187795 -1.22953,0.359055 -1.85551,0.512599l-11.211 2.76024 -0.0129921 -0.0531496 -430.708 106.023c-18.463,4.54489 -37.3075,-6.86103 -41.8477,-25.324 -4.54134,-18.4618 6.86103,-37.3016 25.3217,-41.8453l432.446 -106.45z"/>
   <path id="_374907672" class="fil2" d="M937.592 1349.07c32.1225,-6.55749 63.8528,0.516142 89.1792,17.2547 25.3099,16.7256 44.2429,43.1363 50.804,75.2634l0.0755906 -0.0153543c0.142913,0.701575 0.251575,1.40315 0.329528,2.10118 5.84292,31.4103 -1.28032,62.3186 -17.6587,87.0981 -16.7256,25.3087 -43.1374,44.2429 -75.2634,50.8028l0.0153543 0.0755906c-0.701575,0.142913 -1.40197,0.251575 -2.10118,0.329528 -31.4103,5.84292 -62.3186,-1.28032 -87.0981,-17.6575 -25.3087,-16.7268 -44.2441,-43.1386 -50.804,-75.2658 -6.55985,-32.1248 0.514961,-63.854 17.2536,-89.1816 16.7256,-25.3099 43.1386,-44.2465 75.2682,-50.8052z"/>
   <g>
    <path id="_374907600" class="fil2" d="M1167.44 681.98c4.23898,-20.1 10.3618,-42.4004 18.261,-64.3654 10.8071,-30.0414 24.7866,-59.0056 41.5288,-79.8875l-15.2114 -12.2114 15.2539 12.2291c6.75473,-8.42481 5.4,-20.7295 -3.02362,-27.4831 -3.60473,-2.89016 -7.91812,-4.29449 -12.2055,-4.29685 -63.3473,-5.50867 -92.8371,21.6532 -119.039,45.7973 -16.0016,14.7437 -30.3095,27.926 -52.2969,24.5091l0.00354331 -0.0248032c-1.58268,-0.248032 -3.15118,-0.296457 -4.67953,-0.167717l-81.1583 -0.569292 0.0011811 -0.0791339c-10.7976,-0.0755906 -19.6122,8.61615 -19.6878,19.4126 -0.0625985,8.79449 5.69292,16.2721 13.6642,18.7854 25.1847,10.089 52.493,29.4107 76.5402,51.6343 15.6957,14.5039 29.8299,30.0591 40.9418,44.941 1.66417,-0.588189 3.32835,-1.16929 4.99607,-1.74449 11.152,-3.84803 22.4008,-7.43268 33.7229,-10.7634l-0.080315 -0.302362 18.8847 -5.05985c11.7827,-3.15709 23.6421,-6.04371 35.5607,-8.64568 2.66929,-0.583465 5.34449,-1.15276 8.02323,-1.70788z"/>
    <path id="_374907792" class="fil1" d="M916.9 863.931l95.9174 433.505c7.5567,34.1551 64.7162,41.2985 139.332,31.6465 41.4071,-5.3563 88.7009,-15.1583 134.933,-27.5469 46.2331,-12.3874 92.0906,-27.5457 130.629,-43.6099 69.4453,-28.95 115.375,-63.7146 104.843,-97.0725l-133.686 -423.385c-12.9744,-41.0918 -72.3461,-53.5252 -145.596,-47.1461 -25.2484,2.19921 -52.3536,6.49961 -79.689,12.4665 -11.5559,2.52284 -23.1543,5.34331 -34.6701,8.42953l0.0188977 0.0732284c-17.4024,4.663 -34.6181,9.91654 -51.2268,15.6484 -20.6315,7.12087 -40.3252,14.9799 -58.2815,23.3599 -66.6284,31.1008 -111.834,71.556 -102.524,113.632zm215.093 105.236c-4.01575,-14.987 -2.66103,-28.852 4.063,-41.5973 6.77127,-12.7559 17.8004,-21.9862 33.1099,-27.7949l-3.63898 -13.5815 19.8567 -5.32087 3.64016 13.5815c15.0425,-2.12244 27.9272,-0.304725 38.7414,5.58189 10.7658,5.89843 19.1811,15.3898 25.2473,28.4717l-33.4855 13.8425c-5.0067,-10.2543 -12.4441,-16.0914 -22.3713,-17.5477l14.3681 53.6233c23.5583,0.0625985 40.6158,3.77481 51.065,11.1142 10.4976,7.32638 17.7284,18.3898 21.7063,33.2362 4.42914,16.5319 3.15709,31.8307 -3.78071,45.8386 -6.97323,14.0646 -19.0725,24.7358 -36.2256,32.0929l6.87638 25.6642 -19.8567 5.32087 -6.70158 -25.0087c-16.3429,2.32205 -30.8044,-0.127559 -43.3335,-7.363 -12.5173,-7.18701 -22.5319,-19.4622 -30.1264,-36.7512l34.7977 -13.441c3.40985,6.91654 7.86733,12.4996 13.3134,16.7114 5.39882,4.22599 10.924,6.86103 16.5272,7.92048l-15.398 -57.4654c-19.3158,-0.344882 -34.5485,-4.54607 -45.7158,-12.6969 -11.1224,-8.16379 -18.7134,-19.6323 -22.6784,-34.4315z"/>
    <path id="_374907360" class="fil1" d="M1166.76 942.485c-2.00551,5.25591 -2.29252,10.5532 -0.874016,15.8457 1.29213,4.82244 3.96142,8.97757 7.9689,12.3201 4.0689,3.37796 9.42048,5.55827 16.0583,6.53977l-12.7252 -47.4898c-4.94174,3.28347 -8.36339,7.5626 -10.428,12.7843z"/>
    <path id="_374907312" class="fil1" d="M1221.83 1016.88l14.3303 53.4839c6.54686,-3.10984 11.2665,-7.78819 14.2193,-13.9996 2.94095,-6.25985 3.50197,-12.7854 1.65709,-19.6701 -1.6441,-6.13465 -4.87559,-10.891 -9.6756,-14.374 -4.79764,-3.48307 -11.661,-5.3067 -20.5311,-5.44016z"/>
   </g>
  </g>
 </g>
</svg>
